PathFileType	4	(X/Y/Z)	S1_rest_fast_left.trc
DataRate	CameraRate	NumFrames	NumMarkers	Units	OrigDataRate	OrigDataStartFrame	OrigNumFrames
250.00	250.00	7	18	mm	250.00	1	23803
Frame#	Time	c7	r_should	l_should	clavicle	r_upa	r_elb_l	r_elb_m	r_low	r_wri_l	r_wri_m	r_met	l_upa	l_elb_l	l_elb_m	l_low	l_wri_l	l_wri_m	l_met
	X1	Y1	Z1	X2	Y2	Z2	X3	Y3	Z3	X4	Y4	Z4	X5	Y5	Z5	X6	Y6	Z6	X7	Y7	Z7	X8	Y8	Z8	X9	Y9	Z9	X10	Y10	Z10	X11	Y11	Z11	X12	Y12	Z12	X13	Y13	Z13	X14	Y14	Z14	X15	Y15	Z15	X16	Y16	Z16	X17	Y17	Z17	X18	Y18	Z18
1	0.00000	412.20926	1419.89209	96.73507	513.96875	1360.89136	265.37787	417.05133	1353.27051	-95.06707	550.44659	1302.36414	61.29229	503.02374	1167.94958	346.16406	520.71558	1069.85376	360.48801	437.69669	1043.37622	310.91016	508.04813	937.99457	381.43622	595.67084	872.35883	326.72842	537.23529	842.30212	356.96252	648.95203	794.75641	331.17740	428.81586	1137.85596	-134.52969	433.97672	1091.92542	-147.38503	448.35788	1038.59106	-50.04250	554.42761	1095.93213	-118.18988	584.02887	1197.13843	-131.94562	624.88025	1160.67480	-83.93127	642.31818	1240.27380	-153.83780
2	0.00400	412.07968	1419.86169	96.74467	513.91473	1360.88684	265.35828	416.86563	1353.17444	-95.06401	550.34656	1302.40027	61.23136	503.04376	1167.90295	346.09760	520.72406	1069.80542	360.39258	437.72534	1043.32581	310.77759	508.00037	937.94958	381.36795	595.59863	872.23376	326.68271	537.15173	842.22113	356.92163	648.85706	794.61584	331.13849	428.77530	1137.78931	-134.49069	433.98264	1091.89001	-147.30659	448.24582	1038.57397	-49.98359	554.30048	1096.04138	-117.94353	583.72479	1197.32092	-131.70070	624.61499	1160.93970	-83.66808	641.89423	1240.61511	-153.50497
3	0.00800	411.94427	1419.82581	96.74834	513.86310	1360.87512	265.33572	416.67844	1353.07288	-95.06710	550.24622	1302.42249	61.18491	503.05884	1167.86523	346.02545	520.73090	1069.74573	360.28979	437.74057	1043.27734	310.65826	507.95810	937.89850	381.29019	595.53180	872.10883	326.62793	537.07007	842.14276	356.88135	648.76935	794.46960	331.09036	428.73004	1137.71106	-134.44713	433.97894	1091.84229	-147.22247	448.11581	1038.56738	-49.91961	554.17273	1096.13391	-117.70998	583.42230	1197.47131	-131.45657	624.35364	1161.16528	-83.42094	641.46259	1240.94470	-153.13715
4	0.01200	411.80966	1419.78760	96.76417	513.80896	1360.86182	265.31583	416.48697	1352.97327	-95.05340	550.14935	1302.44678	61.13134	503.06882	1167.82764	345.94672	520.74384	1069.68140	360.19156	437.75452	1043.22717	310.54031	507.92456	937.84033	381.21069	595.46838	871.98834	326.56863	536.99756	842.06635	356.83511	648.67444	794.32739	331.03680	428.67740	1137.63171	-134.40417	433.96100	1091.79065	-147.15311	447.97675	1038.54883	-49.87092	554.05695	1096.21362	-117.49672	583.13965	1197.59229	-131.21545	624.09363	1161.36816	-83.16518	641.11768	1241.23108	-152.82899
5	0.01600	411.66956	1419.76086	96.77260	513.75391	1360.85449	265.29926	416.29623	1352.86926	-95.04498	550.05011	1302.47241	61.07301	503.07651	1167.79504	345.86606	520.76593	1069.62378	360.09717	437.68829	1043.24646	310.39252	507.89178	937.78918	381.13165	595.40686	871.87427	326.50443	536.92627	841.98834	356.77887	648.57843	794.19196	330.97647	428.61670	1137.55908	-134.36783	433.92633	1091.73584	-147.08969	447.93344	1038.48340	-49.85706	553.94287	1096.28357	-117.29942	582.87531	1197.69885	-130.99814	623.82068	1161.53857	-82.90724	640.81085	1241.43835	-152.51366
6	0.02000	411.52435	1419.73401	96.77174	513.69659	1360.84717	265.27518	416.10373	1352.77026	-95.04610	549.95923	1302.49023	61.03378	503.09854	1167.76099	345.79529	520.78394	1069.56653	360.00589	437.59927	1043.28650	310.25433	507.86584	937.74225	381.05127	595.35132	871.76941	326.43344	536.85919	841.91156	356.71790	648.49139	794.06897	330.90378	428.53873	1137.48596	-134.32576	433.87991	1091.68445	-147.02637	447.91431	1038.38721	-49.87286	553.82629	1096.34167	-117.12326	582.63196	1197.79688	-130.79253	623.56219	1161.69263	-82.66328	640.50317	1241.56543	-152.18039
7	0.02400	411.37820	1419.70374	96.77547	513.63824	1360.84668	265.25537	415.90805	1352.67175	-95.03613	549.85870	1302.51343	60.97710	503.11255	1167.72852	345.72382	520.80750	1069.52002	359.92432	437.75439	1043.13281	310.22293	507.85083	937.69470	380.96619	595.30017	871.67950	326.36032	536.80249	841.84027	356.64963	648.41364	793.95630	330.81921	428.45355	1137.40710	-134.28468	433.82800	1091.61975	-146.96251	447.92282	1038.27844	-49.90630	553.70697	1096.39136	-116.95621	582.40247	1197.87341	-130.58218	623.33667	1161.82544	-82.41980	640.23749	1241.70312	-151.87143
